<?xml version="1.0" encoding="utf-8"?>
<!-- Generator: Adobe Illustrator 25.2.0, SVG Export Plug-In . SVG Version: 6.00 Build 0)  -->
<svg version="1.1" xmlns="http://www.w3.org/2000/svg" xmlns:xlink="http://www.w3.org/1999/xlink" x="0px" y="0px"
	 viewBox="0 0 349.05 295.91" style="enable-background:new 0 0 349.05 295.91;" xml:space="preserve">
<style type="text/css">
	.st0{fill:#818181;}
	.st1{fill:#FFFFFF;}
	.st2{fill:#F79CCE;}
	.st3{font-family:'CandyJellyRegular';}
	.st4{font-size:110.9297px;}
	.st5{fill:none;stroke:#F79CCE;stroke-width:9;stroke-linecap:round;stroke-linejoin:round;stroke-miterlimit:10;}
</style>
<g id="레이어_1">
	<path d="M108.69,247.66c9.56-0.49,17.68-3.71,23.98-11.01c2.63-3.05,4.07-6.63,4.8-10.56c0.43-2.33,1.6-4.16,4.14-4.61
		c2.27-0.4,4.43,0.04,5.5,2.22c0.63,1.28,0.92,2.98,0.71,4.39c-1.59,10.77-7.61,18.57-16.79,24.01c-8.23,4.88-17.24,6.7-26.74,5.83
		c-2.21-0.2-2.82,0.44-2.86,2.56c-0.09,4.59,0.04,9.25-0.76,13.73c-2.19,12.19-13.81,21.57-26.25,21.68
		c-12.76,0.11-24.6-9.07-26.99-21.41c-0.85-4.38-0.67-8.96-0.86-13.45c-0.14-3.31-0.06-3.19-3.3-3.04
		c-14.78,0.69-27.6-3.47-37.06-15.45c-3.43-4.34-5.52-9.37-6.14-14.92c-0.36-3.16,1.39-5.68,4.1-6.12c3.1-0.5,5.75,1.05,6.3,4.17
		c1.86,10.49,8.59,16.65,18.13,19.82c10.89,3.61,21.36,2.3,30.81-4.58c3.81-2.77,6.48-6.46,8.15-10.88c0.64-1.7,0.54-2.86-1.1-4.14
		c-1.89-1.49-3.59-3.39-4.9-5.41c-2.31-3.56-4.36-7.31-6.37-11.05c-5.56-10.35,2.48-21.38,12.62-20.78
		c4.24,0.25,8.53,0.27,12.77-0.01c8.82-0.57,17.54,9.29,12.79,19.7c-2.18,4.77-5.09,9.23-7.85,13.71c-0.87,1.41-2.17,2.71-3.57,3.58
		c-2.21,1.37-2.09,2.92-1.25,4.96c3.41,8.32,9.96,12.97,18.25,15.38C102.08,246.9,105.43,247.12,108.69,247.66z M68.37,247.93
		c-2.68,1.74-4.67,3.45-6.96,4.41c-3.26,1.36-4.6,3.43-3.97,6.86c0.08,0.41,0,0.85,0.02,1.28c0.12,4.08-0.28,8.27,0.5,12.21
		c1.33,6.68,8.1,11.96,14.67,12.27c7.78,0.37,14.54-3.6,16.75-10.7c1.16-3.72,0.82-7.88,1.42-11.8c0.8-5.25-0.35-9.2-5.89-11.14
		c-1.81-0.63-3.33-2.11-5.41-3.48c-0.09,1.47-0.18,2.37-0.19,3.27c-0.04,4.17,0.02,8.35-0.09,12.52c-0.09,3.22-2.36,5.36-5.34,5.29
		c-2.93-0.07-4.98-2.14-5.07-5.27c-0.12-4.17-0.13-8.34-0.21-12.51C68.59,250.23,68.48,249.34,68.37,247.93z M73.98,199.29
		c0-0.01,0-0.01,0-0.02c-1.87,0-3.75,0-5.62,0c-0.17,0-0.34,0-0.51,0.01c-3.03,0.17-4.5,2.39-3.12,5.02
		c1.97,3.76,4.04,7.48,6.27,11.09c1.78,2.88,4.22,2.86,6.01-0.02c2.16-3.46,4.22-6.99,6.15-10.58c1.66-3.08,0.25-5.32-3.32-5.49
		C77.9,199.21,75.93,199.29,73.98,199.29z"/>
	<path class="st0" d="M349.05,190.96c0.02,3.14-0.91,5.94-3.14,8.21c-4.5,4.57-9,9.14-13.56,13.65c-2.04,2.02-3.22,2-5.3-0.05
		c-4.5-4.44-9-8.87-13.35-13.45c-4.14-4.37-4.44-10.9-0.97-15.81c3.39-4.8,9.66-6.59,15.14-4.28c1.15,0.48,2.1,0.78,3.44,0.16
		C339.75,175.51,349.07,181.64,349.05,190.96z M342.94,191.75c-0.11-3.31-1.17-5.31-3.5-6.51c-2.31-1.2-4.56-1-6.7,0.47
		c-2.89,1.98-3.07,1.98-6-0.03c-2.83-1.94-6.33-1.53-8.57,0.99c-2.1,2.37-2.09,6.13,0.18,8.51c3.44,3.6,7,7.1,10.49,10.65
		c0.6,0.61,1.08,0.72,1.72,0.06c3.59-3.67,7.26-7.26,10.75-11.01C342.23,193.91,342.6,192.43,342.94,191.75z"/>
	<path d="M31.45,159.18c10.15-0.03,18.85,8.42,18.85,18.28c0,2.33-0.87,4.16-2.96,5.24c-1.91,0.98-4.12,0.97-5.46-0.56
		c-1.24-1.42-2.03-3.48-2.41-5.37c-1.16-5.88-7.84-8.82-12.58-5.19c-1.32,1.01-2.07,2.79-2.98,4.28c-0.29,0.48-0.27,1.15-0.39,1.73
		c-0.89,4.21-2.98,6.11-6.16,5.61c-3.4-0.53-5.04-3.31-4.47-7.59C14.13,166.3,22.13,159.21,31.45,159.18z"/>
	<path d="M135.22,177.34c0.03,3.3-1.83,5.61-4.76,5.91c-2.87,0.29-4.97-1.37-5.76-4.59c-0.35-1.4-0.47-2.89-1.05-4.17
		c-1.42-3.11-4.89-4.85-8.2-4.37c-3.5,0.51-6.07,2.92-6.79,6.34c-0.19,0.91-0.34,1.84-0.59,2.74c-0.84,2.99-2.97,4.41-5.9,3.97
		c-2.6-0.39-4.37-2.54-4.46-5.39c-0.2-7.04,4.6-14.14,11.6-17.17C121.09,155.51,135.12,164.58,135.22,177.34z"/>
	<path d="M25.84,233.59c-0.03-3.08,2.23-5.41,5.21-5.37c2.88,0.04,5.14,2.3,5.17,5.18c0.03,2.91-2.18,5.29-4.98,5.37
		C28.19,238.85,25.86,236.62,25.84,233.59z"/>
	<path d="M111.57,233.35c0.06-2.94,2.3-5.14,5.19-5.09c3.02,0.05,5.3,2.4,5.22,5.38c-0.08,2.82-2.44,5.13-5.26,5.12
		C113.74,238.74,111.51,236.41,111.57,233.35z"/>
	<path d="M45.15,228.2c0-2.91,2.24-5.27,5.03-5.3c2.95-0.04,5.39,2.35,5.4,5.26c0,2.81-2.32,5.2-5.11,5.27
		C47.43,233.51,45.15,231.27,45.15,228.2z"/>
	<path d="M92.24,228.12c0.02-2.86,2.34-5.22,5.13-5.21c2.93,0.01,5.32,2.43,5.28,5.36c-0.04,2.92-2.24,5.12-5.16,5.17
		C94.5,233.48,92.22,231.17,92.24,228.12z"/>
	<path class="st1" d="M68.37,247.93c0.1,1.41,0.21,2.3,0.23,3.19c0.08,4.17,0.09,8.34,0.21,12.51c0.09,3.13,2.14,5.2,5.07,5.27
		c2.98,0.08,5.25-2.07,5.34-5.29c0.12-4.17,0.06-8.34,0.09-12.52c0.01-0.9,0.1-1.8,0.19-3.27c2.09,1.38,3.6,2.85,5.41,3.48
		c5.55,1.94,6.69,5.88,5.89,11.14c-0.6,3.92-0.27,8.08-1.42,11.8c-2.21,7.1-8.97,11.07-16.75,10.7
		c-6.57-0.31-13.34-5.59-14.67-12.27c-0.78-3.95-0.38-8.14-0.5-12.21c-0.01-0.43,0.06-0.86-0.02-1.28c-0.63-3.43,0.71-5.5,3.97-6.86
		C63.71,251.38,65.69,249.66,68.37,247.93z"/>
	<path class="st1" d="M73.98,199.29c1.96,0,3.92-0.07,5.87,0.02c3.57,0.17,4.97,2.41,3.32,5.49c-1.93,3.59-3.98,7.12-6.15,10.58
		c-1.8,2.87-4.23,2.9-6.01,0.02c-2.23-3.61-4.3-7.33-6.27-11.09c-1.38-2.63,0.08-4.85,3.12-5.02c0.17-0.01,0.34-0.01,0.51-0.01
		c1.87,0,3.75,0,5.62,0C73.98,199.28,73.98,199.28,73.98,199.29z"/>
	<text transform="matrix(1 0 0 1 198.501 90.2403)"><tspan x="0" y="0" class="st2 st3 st4">PET</tspan><tspan x="-19.86" y="76" class="st2 st3 st4">LOVE</tspan></text>
	<path class="st5" d="M307.34,207.56c-91.16,21.95-119.39-5.87-119.39-5.87l-26.26,5.88l12.88-20.97c0,0-28.73-20.81-19.82-62.42"/>
</g>
<g id="레이어_2">
</g>
</svg>
