<?xml version="1.0" encoding="utf-8"?>
<!-- Generator: Adobe Illustrator 25.2.0, SVG Export Plug-In . SVG Version: 6.00 Build 0)  -->
<svg version="1.1" id="레이어_1" xmlns="http://www.w3.org/2000/svg" xmlns:xlink="http://www.w3.org/1999/xlink" x="0px"
	 y="0px" viewBox="0 0 349 295.9" style="enable-background:new 0 0 349 295.9;" xml:space="preserve">
<style type="text/css">
	.st0{fill:#818181;}
	.st1{fill:#FFFFFF;}
	.st2{enable-background:new    ;}
	.st3{fill:#F79CCE;}
	.st4{fill:none;stroke:#F79CCE;stroke-width:9;stroke-linecap:round;stroke-linejoin:round;stroke-miterlimit:10;}
</style>
<path d="M108.7,247.7c9.6-0.5,17.7-3.7,24-11c2.6-3.1,4.1-6.6,4.8-10.6c0.4-2.3,1.6-4.2,4.1-4.6c2.3-0.4,4.4,0,5.5,2.2
	c0.6,1.3,0.9,3,0.7,4.4c-1.6,10.8-7.6,18.6-16.8,24c-8.2,4.9-17.2,6.7-26.7,5.8c-2.2-0.2-2.8,0.4-2.9,2.6c-0.1,4.6,0,9.2-0.8,13.7
	c-2.2,12.2-13.8,21.6-26.2,21.7c-12.8,0.1-24.6-9.1-27-21.4c-0.8-4.4-0.7-9-0.9-13.5c-0.1-3.3-0.1-3.2-3.3-3
	c-14.8,0.7-27.6-3.5-37.1-15.4c-3.4-4.3-5.5-9.4-6.1-14.9c-0.4-3.2,1.4-5.7,4.1-6.1c3.1-0.5,5.8,1.1,6.3,4.2
	c1.9,10.5,8.6,16.6,18.1,19.8c10.9,3.6,21.4,2.3,30.8-4.6c3.8-2.8,6.5-6.5,8.2-10.9c0.6-1.7,0.5-2.9-1.1-4.1
	c-1.9-1.5-3.6-3.4-4.9-5.4c-2.3-3.6-4.4-7.3-6.4-11.1c-5.6-10.4,2.5-21.4,12.6-20.8c4.2,0.2,8.5,0.3,12.8,0
	c8.8-0.6,17.5,9.3,12.8,19.7c-2.2,4.8-5.1,9.2-7.8,13.7c-0.9,1.4-2.2,2.7-3.6,3.6c-2.2,1.4-2.1,2.9-1.2,5c3.4,8.3,10,13,18.2,15.4
	C102.1,246.9,105.4,247.1,108.7,247.7z M68.4,247.9c-2.7,1.7-4.7,3.4-7,4.4c-3.3,1.4-4.6,3.4-4,6.9c0.1,0.4,0,0.9,0,1.3
	c0.1,4.1-0.3,8.3,0.5,12.2c1.3,6.7,8.1,12,14.7,12.3c7.8,0.4,14.5-3.6,16.8-10.7c1.2-3.7,0.8-7.9,1.4-11.8c0.8-5.2-0.3-9.2-5.9-11.1
	c-1.8-0.6-3.3-2.1-5.4-3.5c-0.1,1.5-0.2,2.4-0.2,3.3c0,4.2,0,8.3-0.1,12.5c-0.1,3.2-2.4,5.4-5.3,5.3c-2.9-0.1-5-2.1-5.1-5.3
	c-0.1-4.2-0.1-8.3-0.2-12.5C68.6,250.2,68.5,249.3,68.4,247.9z M74,199.3C74,199.3,74,199.3,74,199.3c-1.9,0-3.8,0-5.6,0
	c-0.2,0-0.3,0-0.5,0c-3,0.2-4.5,2.4-3.1,5c2,3.8,4,7.5,6.3,11.1c1.8,2.9,4.2,2.9,6,0c2.2-3.5,4.2-7,6.2-10.6
	c1.7-3.1,0.2-5.3-3.3-5.5C77.9,199.2,75.9,199.3,74,199.3z"/>
<path class="st0" d="M349,191c0,3.1-0.9,5.9-3.1,8.2c-4.5,4.6-9,9.1-13.6,13.6c-2,2-3.2,2-5.3-0.1c-4.5-4.4-9-8.9-13.4-13.4
	c-4.1-4.4-4.4-10.9-1-15.8c3.4-4.8,9.7-6.6,15.1-4.3c1.1,0.5,2.1,0.8,3.4,0.2C339.8,175.5,349.1,181.6,349,191z M342.9,191.8
	c-0.1-3.3-1.2-5.3-3.5-6.5c-2.3-1.2-4.6-1-6.7,0.5c-2.9,2-3.1,2-6,0c-2.8-1.9-6.3-1.5-8.6,1c-2.1,2.4-2.1,6.1,0.2,8.5
	c3.4,3.6,7,7.1,10.5,10.6c0.6,0.6,1.1,0.7,1.7,0.1c3.6-3.7,7.3-7.3,10.8-11C342.2,193.9,342.6,192.4,342.9,191.8z"/>
<path d="M31.5,159.2c10.1,0,18.9,8.4,18.9,18.3c0,2.3-0.9,4.2-3,5.2c-1.9,1-4.1,1-5.5-0.6c-1.2-1.4-2-3.5-2.4-5.4
	c-1.2-5.9-7.8-8.8-12.6-5.2c-1.3,1-2.1,2.8-3,4.3c-0.3,0.5-0.3,1.1-0.4,1.7c-0.9,4.2-3,6.1-6.2,5.6c-3.4-0.5-5-3.3-4.5-7.6
	C14.1,166.3,22.1,159.2,31.5,159.2z"/>
<path d="M135.2,177.3c0,3.3-1.8,5.6-4.8,5.9c-2.9,0.3-5-1.4-5.8-4.6c-0.3-1.4-0.5-2.9-1.1-4.2c-1.4-3.1-4.9-4.9-8.2-4.4
	c-3.5,0.5-6.1,2.9-6.8,6.3c-0.2,0.9-0.3,1.8-0.6,2.7c-0.8,3-3,4.4-5.9,4c-2.6-0.4-4.4-2.5-4.5-5.4c-0.2-7,4.6-14.1,11.6-17.2
	C121.1,155.5,135.1,164.6,135.2,177.3z"/>
<path d="M25.8,233.6c0-3.1,2.2-5.4,5.2-5.4c2.9,0,5.1,2.3,5.2,5.2c0,2.9-2.2,5.3-5,5.4C28.2,238.9,25.9,236.6,25.8,233.6z"/>
<path d="M111.6,233.4c0.1-2.9,2.3-5.1,5.2-5.1c3,0.1,5.3,2.4,5.2,5.4c-0.1,2.8-2.4,5.1-5.3,5.1C113.7,238.7,111.5,236.4,111.6,233.4
	z"/>
<path d="M45.2,228.2c0-2.9,2.2-5.3,5-5.3c3,0,5.4,2.4,5.4,5.3c0,2.8-2.3,5.2-5.1,5.3C47.4,233.5,45.2,231.3,45.2,228.2z"/>
<path d="M92.2,228.1c0-2.9,2.3-5.2,5.1-5.2c2.9,0,5.3,2.4,5.3,5.4c0,2.9-2.2,5.1-5.2,5.2C94.5,233.5,92.2,231.2,92.2,228.1z"/>
<path class="st1" d="M68.4,247.9c0.1,1.4,0.2,2.3,0.2,3.2c0.1,4.2,0.1,8.3,0.2,12.5c0.1,3.1,2.1,5.2,5.1,5.3c3,0.1,5.2-2.1,5.3-5.3
	c0.1-4.2,0.1-8.3,0.1-12.5c0-0.9,0.1-1.8,0.2-3.3c2.1,1.4,3.6,2.9,5.4,3.5c5.6,1.9,6.7,5.9,5.9,11.1c-0.6,3.9-0.3,8.1-1.4,11.8
	c-2.2,7.1-9,11.1-16.8,10.7c-6.6-0.3-13.3-5.6-14.7-12.3c-0.8-4-0.4-8.1-0.5-12.2c0-0.4,0.1-0.9,0-1.3c-0.6-3.4,0.7-5.5,4-6.9
	C63.7,251.4,65.7,249.7,68.4,247.9z"/>
<path class="st1" d="M74,199.3c2,0,3.9-0.1,5.9,0c3.6,0.2,5,2.4,3.3,5.5c-1.9,3.6-4,7.1-6.2,10.6c-1.8,2.9-4.2,2.9-6,0
	c-2.2-3.6-4.3-7.3-6.3-11.1c-1.4-2.6,0.1-4.9,3.1-5c0.2,0,0.3,0,0.5,0C70.2,199.3,72.1,199.3,74,199.3C74,199.3,74,199.3,74,199.3z"
	/>
<g class="st2">
	<path class="st3" d="M202.1,56.5c0.2-7.7-0.2-16.3,0.3-24.9c0.3-5.3,2.1-8.8,8-10c8.1-1.6,16-1.9,23.8,1c11.9,4.5,17,17,16.7,26.4
		c-0.1,3.9-0.6,7.8-2,11.6c-2.3,6.5-6.8,10.7-13,13.3c-4.1,1.7-8.5,2.6-12.9,2.9c-1.1,0.1-1.5,0.4-1.5,1.6c0,2.3-0.2,4.6-0.3,6.8
		c-0.1,2.6-1.4,4.3-3.8,5.1c-3.6,1.2-7.2,1.4-10.8,0.2c-2.9-0.9-3.8-2.3-4-5.3c-0.6-7.3-0.2-14.6-0.3-21.9
		C202.1,61.4,202.1,59.3,202.1,56.5z M208.1,49.1c-1.3,0.1-2.7,0.2-2.8,1.7c0,1.8,1.7,1.9,2.9,2c1.2,0.1,2.7-0.2,2.7-1.7
		C211.1,49.4,209.3,49.4,208.1,49.1z M210.4,38.4c-0.2-2.7,0.1-5.4-0.3-8.1c-0.2-1.1-0.7-1.6-1.7-1.7c-1-0.1-1.6,0.4-1.8,1.3
		c-1.2,5-1.4,10.1-0.8,15.2c0.2,1.7,1.8,1.6,3,1.5c1.2,0,1.6-0.8,1.5-1.9C210.4,42.7,210.4,40.6,210.4,38.4z M221.6,49.2
		c0,0-0.1,0-0.1,0c0,5.7,0,11.4,0,17.1c0,1.8,0.2,1.9,1.8,1c0.4-0.3,0.8-0.6,1.2-0.9c2.7-2.1,3.9-5.1,5-8.1c2.8-7.9,2.8-15.6-1-23.2
		c-1.2-2.3-2.7-4.3-4.8-5.8c-0.7-0.5-1.6-1.2-2.4-0.9c-0.7,0.3,0,1.4,0,2.1c0,1.3,0.2,2.7,0.2,4C221.6,39.3,221.6,44.2,221.6,49.2z"
		/>
	<path class="st3" d="M255.3,60.1c-0.3-11.4,0.1-22.7,1.9-34c0.9-5.5,2.7-7.3,8.3-7.2c6.1,0.2,12.2-0.1,18.2,0.9
		c1.1,0.2,2.1,0.4,3.1,0.8c0.8,0.3,1.5,0.8,1.5,1.8c0,0.9-0.7,1.3-1.4,1.7c-1.4,0.7-2.9,1-4.4,1.1c-2.6,0.1-5.2-0.2-7.8-0.5
		c-0.8-0.1-1.4-0.1-1.1,1c1.4,5.6,1.1,11.2,1,16.9c0,3.9,0,7.9-0.2,11.8c0,1.4,0.3,1.9,1.8,1.6c2.2-0.5,4.5-0.7,6.8-1
		c1.6-0.2,3.2,0,4.7,0.6c0.6,0.3,1.2,0.6,1.2,1.4c0,0.7-0.5,1.1-1.1,1.4c-1.3,0.7-2.6,0.9-4,1c-2.6,0.3-5.2,0.6-7.8,0.8
		c-1,0.1-1.5,0.3-1.5,1.5c0.1,6.3,0.1,12.7,0.1,19c0,1.6,0.6,2,2.1,1.8c2.4-0.3,4.7-1.2,7.1-1.1c1.4,0.1,2.8,0.2,4.1,0.8
		c0.6,0.3,1.3,0.7,1.3,1.5c0.1,0.9-0.6,1.4-1.3,1.7c-1.9,1-4.1,1.1-6.2,1.6c-3.7,0.8-7.5,1.5-11.2,2.2c-2.8,0.5-5.7,0.5-8.5-0.2
		c-3.4-0.8-5.4-3-6.1-6.3c-0.5-2.2-0.8-4.5-0.8-6.8C255.3,70.7,255.3,65.4,255.3,60.1z M262.3,44.1c-0.9,0-1.8,0-2.5,0.6
		c-0.8,0.8-1.3,1.7-0.2,2.6c1.1,0.9,3.7,0.8,4.8-0.2c0.5-0.4,0.8-1,0.7-1.7c-0.1-0.7-0.7-1-1.3-1.2
		C263.3,44.1,262.8,44.2,262.3,44.1z M264.6,32.5c0.1,0,0.3,0,0.4,0c0-2.2,0-4.4,0-6.7c0-1.4-0.8-1.8-2.1-1.8c-1.4,0-2,0.8-2.3,2.1
		c-0.9,4.2-0.9,8.4-0.9,12.7c0,1.7,0.9,2.2,2.3,2.3c1.5,0,2.6-0.4,2.6-2.3C264.6,36.7,264.6,34.6,264.6,32.5z"/>
	<path class="st3" d="M311.8,22.3c4.5,0,9-0.5,13.5,0.1c1.1,0.1,2.1,0.5,3.1,1c0.8,0.4,1.5,0.9,1.5,1.8c0,1.1-0.9,1.5-1.7,1.8
		c-1.2,0.5-2.5,0.6-3.7,0.7c-1.6,0.1-3.2,0.2-4.8,0.2c-1,0-1.4,0.2-1,1.3c1.6,4.9,1.9,10,2,15c0.2,10.1,1.1,20.3,0.4,30.4
		c-0.2,3.1-0.5,6.2-0.8,9.3c-0.2,2.7-1.7,4.3-4.3,4.9c-1.2,0.3-2.3,0.5-3.6,0.5c-5.9,0.1-7.6-1.4-8.6-7.2c-2.4-12.9-2.1-26-2.7-39.1
		c-0.2-4.4-0.2-8.9,0.9-13.2c0.3-1.2,0-1.5-1.2-1.5c-2.9,0-5.7-0.1-8.5-0.7c-1.3-0.3-3.1-0.5-3.2-2.2c0-1.8,1.9-1.8,3.2-2.1
		C298.7,22.2,305.3,22.3,311.8,22.3z M308.6,39.1c0,0-0.1,0-0.1,0c-0.2-2.2-0.3-4.4-0.5-6.6c-0.1-1-0.2-2.1-1.6-2.1
		c-1.4,0-1.6,1-1.8,2c-0.6,4.2-0.5,8.3,0,12.5c0.2,1.5,1.3,1.5,2.4,1.5c1.2,0,1.7-0.6,1.7-1.8C308.6,42.8,308.6,40.9,308.6,39.1z
		 M306.8,53.2c1.1-0.2,2.4-0.3,2.4-1.6c0-1.4-1.2-1.4-2.2-1.4c-1.2,0-2.3,0.3-2.3,1.7C304.7,53.2,305.9,53,306.8,53.2z"/>
</g>
<g class="st2">
	<path class="st3" d="M201.2,131.1c0.1,8.1,0.1,16.8,0.6,25.6c0.2,2.6,0.2,2.6,2.8,2.2c2.8-0.4,5.5-0.3,7.9,1.2
		c1.8,1.1,1.8,2.5-0.1,3.3c-8.1,3.3-16.2,3.9-24.4,0.5c-3.7-1.5-5.5-4.4-5.7-8.5c-0.4-12-0.9-24.1,0-36.1c0.4-5.2,0.2-10.4,0.2-15.6
		c0-2.3,1-4.2,2.9-5.4c4.2-2.6,11.9-1.2,14.9,2.7c1,1.3,1.6,2.8,1.6,4.5C202.2,113.9,201.7,122.2,201.2,131.1z M188.9,108.7
		c0-1.2,0-3.2,0-5.2c0-0.8-0.5-1.4-1.4-1.5c-0.9,0-1.3,0.5-1.5,1.2c-1.5,4.9-1.5,9.8-0.7,14.8c0.3,1.5,1.6,1.6,2.9,1.5
		c1.5-0.1,1.3-1.2,1.2-2.2C189.3,114.7,189.1,112.1,188.9,108.7z M187.6,126.5c1,0,2.4-0.1,2.4-1.3c0-1.4-1.5-1.8-2.6-1.8
		c-1.1-0.1-2.4,0.3-2.4,1.6C185,126.4,186.5,126.3,187.6,126.5z"/>
	<path class="st3" d="M258.3,127.8c-0.2,7.8-0.3,15.6-2.3,23.2c-2.4,9.7-9.2,15-19.2,15.3c-2.7,0.1-5.3-0.2-8-0.6
		c-6.5-0.9-10.4-4.8-12.5-10.8c-1.4-4-2.3-8.2-2.5-12.5c-0.4-10-0.4-20,1.6-29.9c1-4.7,2.9-8.9,5.4-12.9c2.4-4,6.6-5.6,10.9-6.2
		c6.8-1,13.1,0.3,18.7,4.5c2.7,2,4.6,4.5,5.6,7.7C258.3,112.9,258.8,120.3,258.3,127.8z M220.8,125.5c-2,0-3.3,1-3.2,2.4
		c0.1,1.6,1.3,1.8,2.6,1.8c1.9,0,3.2-0.9,3.1-2.3C223.2,125.8,221.9,125.6,220.8,125.5z M218.3,119.8c-0.2,1.2,0.1,2.3,2,2.3
		c1.8,0.1,2.5-0.9,2.5-2.6c0-1.9,0.3-3.8,0.7-5.6c0.7-3.4,1.5-6.8,2.2-10.2c0.1-0.7,0.3-1.5-0.6-1.7c-0.8-0.2-1.5-0.2-2,0.6
		c-0.2,0.3-0.4,0.6-0.6,1C220.3,108.6,218.7,113.9,218.3,119.8z M233.1,127.6c0,2.4-0.1,6.5,0,10.7c0.2,5.8,0.8,11.6,3.4,17
		c0.8,1.7,1.4,1.7,2.6,0.3c1.7-2.1,2.7-4.5,3.5-7.1c1.7-5.4,2.3-11,2.5-16.7c0.2-6.7,0.5-13.4-1.3-20c-0.9-3.3-2-6.4-4.8-8.7
		c-1.5-1.2-4-0.8-4.9,0.8c-0.6,1.1-1.1,2.3-1,3.8C233.7,113.8,233.9,119.8,233.1,127.6z"/>
	<path class="st3" d="M288.1,148.9c0.7-2.5,1.5-4.7,2-7c2.7-11.4,5.6-22.8,7.6-34.3c0.4-2.5,1.5-4.9,1.7-7.4c0-0.2,0.1-0.5,0.3-0.7
		c1.3-1.9,7.9-2,9.2-0.2c0.3,0.4,0.2,0.8,0.1,1.2c-3.2,14.6-6.2,29.3-8.6,44c-0.8,5.1-2.1,10.2-3.8,15.1c-1.4,4-4.3,5.8-8.3,6.1
		c-9,0.7-14.7-2.6-17.5-11.3c-4.2-13.2-7.6-26.6-7.8-40.6c-0.1-3.7-0.3-7.5-0.4-11.2c0-2.6,0.8-3.5,3.3-4c3.9-0.8,6.8,0.6,8.8,4.2
		c2.7,5,4.1,10.5,5.4,16c2.4,9.8,5,19.7,7.5,29.5C287.7,148.4,287.8,148.5,288.1,148.9z M265.2,112.5c0,2,0.4,4.4,1,6.8
		c0.4,1.5,1.6,1.6,2.9,1.5c1.1-0.1,1.5-0.8,1.3-1.9c-0.9-4-1.3-8-1.8-12c-0.1-0.8-0.1-1.7-1.3-1.8c-1.2,0-1.5,0.9-1.7,1.7
		C265.1,108.6,265,110.3,265.2,112.5z M269.9,126.1c1.2-0.1,2.4-0.4,2.5-1.8c0-1.2-1.2-1.3-2.2-1.2c-1.1,0-2.3,0.1-2.3,1.6
		C267.8,125.9,268.9,125.9,269.9,126.1z"/>
	<path class="st3" d="M313,136.1c-0.3-11.4,0.1-22.7,1.9-34c0.9-5.5,2.7-7.3,8.3-7.2c6.1,0.2,12.2-0.1,18.2,0.9
		c1.1,0.2,2.1,0.4,3.1,0.8c0.8,0.3,1.5,0.8,1.5,1.8c0,0.9-0.7,1.3-1.4,1.7c-1.4,0.7-2.9,1-4.4,1.1c-2.6,0.1-5.2-0.2-7.8-0.5
		c-0.8-0.1-1.4-0.1-1.1,1c1.4,5.6,1.1,11.2,1,16.9c0,3.9,0,7.9-0.2,11.8c0,1.4,0.3,1.9,1.8,1.6c2.2-0.5,4.5-0.7,6.8-1
		c1.6-0.2,3.2,0,4.7,0.6c0.6,0.3,1.2,0.6,1.2,1.4c0,0.7-0.5,1.1-1.1,1.4c-1.3,0.7-2.6,0.9-4,1c-2.6,0.3-5.2,0.6-7.8,0.8
		c-1,0.1-1.5,0.3-1.5,1.5c0.1,6.3,0.1,12.7,0.1,19c0,1.6,0.6,2,2.1,1.8c2.4-0.3,4.7-1.2,7.1-1.1c1.4,0.1,2.8,0.2,4.1,0.8
		c0.6,0.3,1.3,0.7,1.3,1.5c0.1,0.9-0.6,1.4-1.3,1.7c-1.9,1-4.1,1.1-6.2,1.6c-3.7,0.8-7.5,1.5-11.2,2.2c-2.8,0.5-5.7,0.5-8.5-0.2
		c-3.3-0.8-5.4-3-6.1-6.3c-0.5-2.2-0.8-4.5-0.8-6.8C313,146.7,313,141.4,313,136.1z M320,120.1c-0.9,0-1.8,0-2.5,0.6
		c-0.8,0.8-1.3,1.7-0.2,2.6c1.1,0.9,3.7,0.8,4.8-0.2c0.5-0.4,0.8-1,0.7-1.7c-0.1-0.7-0.7-1-1.3-1.2C321,120.1,320.5,120.2,320,120.1
		z M322.3,108.5c0.1,0,0.3,0,0.4,0c0-2.2,0-4.4,0-6.7c0-1.4-0.8-1.8-2.1-1.8c-1.4,0-2,0.8-2.3,2.1c-0.9,4.2-0.9,8.4-0.9,12.7
		c0,1.7,0.9,2.2,2.3,2.3c1.5,0,2.6-0.4,2.6-2.3C322.3,112.7,322.3,110.6,322.3,108.5z"/>
</g>
<path class="st4" d="M307.3,207.6c-91.2,21.9-119.4-5.9-119.4-5.9l-26.3,5.9l12.9-21c0,0-28.7-20.8-19.8-62.4"/>
<g id="레이어_2_1_">
</g>
</svg>
